<?xml version="1.0" standalone="no"?>
<!DOCTYPE svg PUBLIC "-//W3C//DTD SVG 20010904//EN"
 "http://www.w3.org/TR/2001/REC-SVG-20010904/DTD/svg10.dtd">
<svg version="1.0" xmlns="http://www.w3.org/2000/svg"
 width="512.000000pt" height="512.000000pt" viewBox="0 0 512.000000 512.000000"
 preserveAspectRatio="xMidYMid meet">
<metadata>
Created by potrace 1.14, written by Peter Selinger 2001-2017
</metadata>
<g transform="translate(0.000000,512.000000) scale(0.100000,-0.100000)"
fill="#000000" stroke="none">
<path d="M2368 5116 c-1 -2 -34 -6 -73 -10 -38 -3 -81 -8 -95 -10 -14 -3 -52
-10 -85 -15 -92 -17 -102 -19 -189 -41 -254 -66 -456 -150 -696 -291 -236
-138 -508 -383 -699 -629 -67 -86 -62 -80 -92 -125 -14 -22 -34 -53 -45 -69
-76 -117 -217 -397 -217 -433 0 -7 -3 -13 -7 -13 -4 0 -7 -6 -8 -12 0 -7 -15
-53 -32 -103 -85 -246 -122 -476 -125 -775 -3 -271 18 -458 75 -666 10 -39 21
-81 24 -95 5 -24 43 -133 86 -244 30 -77 159 -329 171 -333 5 -2 9 -8 9 -13 0
-14 75 -128 147 -224 308 -407 749 -724 1231 -884 151 -50 335 -94 447 -106
22 -3 60 -8 85 -11 64 -9 471 -10 555 -2 61 7 139 19 265 44 135 25 502 150
521 177 3 5 8 8 10 6 8 -5 140 61 218 110 46 28 85 51 87 51 6 0 64 41 82 57
7 7 17 13 22 13 5 0 15 6 22 12 7 7 56 47 108 89 169 136 328 302 449 469 33
47 65 90 69 95 27 36 110 179 155 266 139 273 230 582 264 892 9 81 9 443 0
527 -11 111 -17 154 -23 180 -3 14 -8 39 -11 55 -3 17 -16 73 -30 125 -13 52
-25 100 -27 105 -6 27 -49 154 -61 180 -8 17 -26 62 -41 100 -86 217 -261 494
-439 694 -123 139 -328 320 -465 411 -12 8 -29 22 -38 30 -9 8 -18 15 -21 14
-3 -1 -22 9 -41 21 -33 20 -100 58 -195 109 -110 59 -385 166 -463 181 -13 2
-38 9 -55 14 -39 12 -215 48 -277 56 -25 3 -61 8 -80 11 -37 6 -466 15 -472
10z m257 -291 c243 -30 452 -93 635 -192 47 -26 87 -49 90 -52 12 -14 70 -51
80 -51 5 0 10 -4 10 -8 0 -4 13 -15 29 -25 37 -22 217 -198 267 -262 21 -27
41 -52 44 -55 14 -14 70 -102 70 -110 0 -6 3 -10 8 -10 4 0 22 -30 41 -67 18
-38 40 -80 48 -95 8 -16 11 -28 7 -28 -3 0 -1 -6 5 -13 6 -8 13 -24 15 -38 3
-13 5 -24 6 -24 1 0 3 -9 5 -20 2 -11 7 -36 11 -55 13 -60 14 -63 20 -125 37
-382 -87 -771 -331 -1031 -225 -240 -305 -553 -239 -938 13 -76 28 -153 34
-170 40 -125 58 -171 96 -246 47 -92 150 -234 228 -315 26 -27 57 -68 68 -90
41 -78 18 -178 -42 -187 -17 -3 -33 -2 -34 1 -8 13 -1379 2 -1803 -14 -75 -3
-103 -1 -104 8 0 7 -2 53 -4 102 -3 83 -22 242 -30 256 -2 3 -7 21 -10 40 -18
102 -119 337 -170 398 -42 49 -96 70 -164 65 -145 -12 -180 -12 -236 -3 -138
24 -249 90 -291 171 -22 43 -22 111 0 182 19 60 18 162 -2 203 -19 40 -46 91
-78 151 -53 98 -51 120 18 193 21 22 38 50 38 62 0 23 -40 77 -57 77 -5 0 -27
13 -49 30 -21 16 -43 30 -47 30 -19 0 -87 65 -101 95 -21 44 -20 84 4 139 36
85 90 160 206 285 91 98 117 130 163 199 65 100 63 93 44 174 -35 150 -20 335
37 487 77 200 301 480 517 644 77 59 209 138 217 130 3 -4 6 -1 6 5 0 7 3 11
8 10 4 -1 21 5 37 12 17 7 32 14 35 15 3 1 34 11 70 22 36 11 99 26 140 33 41
6 82 13 90 14 26 5 292 -3 345 -9z"/>
<path d="M3211 4331 c-7 -5 -14 -19 -15 -31 0 -13 -8 -24 -16 -25 -8 -2 -36
-13 -63 -25 -44 -21 -49 -21 -72 -6 -23 15 -26 15 -59 -14 -37 -33 -39 -43
-15 -78 15 -21 15 -27 -7 -80 -19 -47 -28 -58 -53 -65 -17 -4 -31 -11 -32 -15
-10 -70 1 -99 38 -104 22 -2 33 -14 54 -58 24 -49 26 -57 13 -77 -18 -29 -18
-38 4 -64 30 -35 49 -41 77 -23 24 16 28 16 68 -2 23 -11 45 -20 49 -20 4 -1
12 -2 17 -3 4 0 12 -16 17 -33 8 -26 15 -33 39 -35 50 -5 75 5 75 30 0 20 19
63 20 44 0 -4 16 0 36 8 46 19 63 19 85 -1 21 -19 46 -8 79 33 19 24 20 29 6
39 -23 16 -20 42 12 104 20 39 34 54 51 57 31 4 28 0 34 50 6 43 -5 62 -40 67
-11 2 -22 18 -29 43 -7 22 -19 53 -27 70 -12 22 -13 33 -5 41 22 22 16 47 -18
76 -32 26 -36 27 -57 13 -19 -13 -26 -12 -62 3 -22 10 -52 23 -68 29 -15 6
-32 22 -37 36 -8 21 -16 25 -47 25 -21 0 -44 -4 -52 -9z m144 -170 c148 -70
184 -245 74 -360 -42 -45 -87 -64 -154 -67 -124 -5 -215 74 -230 200 -8 61 10
117 53 167 64 75 172 100 257 60z"/>
<path d="M2193 4282 c-25 -4 -38 -31 -42 -84 -1 -10 -12 -20 -28 -24 -39 -9
-134 -54 -156 -73 -17 -14 -22 -13 -67 12 -57 32 -65 30 -124 -33 -45 -49 -48
-77 -12 -113 30 -30 29 -40 -5 -114 -11 -23 -22 -54 -25 -70 -8 -47 -11 -51
-56 -64 -71 -20 -78 -31 -74 -112 4 -74 21 -103 57 -92 30 10 66 -12 78 -47 6
-18 12 -34 12 -35 0 -2 13 -28 29 -59 28 -52 29 -57 15 -84 -8 -16 -19 -32
-25 -35 -36 -22 60 -145 112 -145 16 0 31 6 34 14 3 8 18 19 34 26 24 10 35 8
76 -13 27 -14 68 -30 92 -37 50 -16 63 -29 66 -68 4 -51 21 -62 97 -62 78 0
99 13 99 65 0 35 21 65 45 65 12 0 120 44 128 52 2 2 19 -9 38 -23 58 -45 71
-45 125 2 67 58 75 87 33 125 -27 24 -24 40 19 125 20 41 42 85 47 99 8 19 18
26 46 28 20 2 44 11 52 20 28 31 26 168 -2 173 -3 1 -19 2 -34 3 -38 4 -49 17
-64 78 -8 28 -27 78 -44 111 -30 59 -30 60 -11 81 34 37 33 54 -1 94 -68 80
-93 89 -134 50 l-24 -22 -72 36 c-39 20 -88 39 -107 43 -53 11 -70 23 -70 50
0 22 -22 54 -38 56 -22 3 -100 4 -119 1z m137 -276 c71 -8 151 -48 205 -102
48 -48 75 -81 75 -93 0 -4 7 -22 16 -40 21 -42 28 -84 26 -156 -2 -78 -6 -96
-44 -172 -30 -62 -101 -128 -176 -165 -61 -30 -74 -33 -162 -33 -86 0 -101 3
-160 31 -135 65 -214 179 -224 325 -10 158 76 306 216 372 54 26 145 46 178
40 8 -1 31 -4 50 -7z"/>
</g>
</svg>
